<svg width="6.125em" height="1.5em" viewBox="0 0 98 24" fill="currentColor" xmlns="http://www.w3.org/2000/svg"><g class="logo-yt-icon"><path fill="red" d="M28.4 5.12a3.57 3.57 0 00-2.55-2.52C23.62 2 14.68 2 14.68 2s-8.93 0-11.16.6A3.565 3.565 0 001 5.12C.59 7.39.39 9.69.4 12c-.01 2.31.19 4.61.6 6.88a3.565 3.565 0 002.52 2.52c2.23.6 11.16.6 11.16.6s8.93 0 11.16-.6a3.583 3.583 0 002.56-2.52c.41-2.27.61-4.57.6-6.88.01-2.31-.19-4.61-.6-6.88z"/><path fill="#FFF" d="M11.83 16.29L19.25 12l-7.42-4.29z"/></g><path d="M52.73 15.38l-.07 1.57c-.01.24-.07.4-.18.48-.1.08-.27.12-.49.12h-2.77l-.31 4.12c-.01.19-.06.33-.12.42s-.21.13-.43.13l-3.95.38c-.21 0-.34-.03-.41-.09-.07-.06-.09-.17-.08-.33l-.13-4.64h-2.75l-.33 4.35c0 .19-.03.33-.1.42-.07.09-.21.13-.43.13l-4.18.39c-.21 0-.34-.03-.41-.09s-.09-.17-.08-.33l-.38-4.86h-3.02c-.31 0-.47-.13-.49-.4l-.12-1.75c-.01-.19.03-.34.14-.46s.28-.17.52-.17h20.09c.18 0 .3.04.38.12.08.1.11.26.1.49zM32.52 7.51c.27-2 1.34-3.56 3.22-4.69s4.18-1.68 6.92-1.65c2.57.03 4.69.64 6.36 1.84 1.67 1.2 2.35 2.74 2.04 4.61-.34 1.94-1.39 3.5-3.16 4.68s-4.08 1.75-6.93 1.68c-2.83-.06-5-.66-6.54-1.8-1.54-1.13-2.17-2.69-1.91-4.67zm8.64-1.24c-.82.46-1.33 1.07-1.52 1.82-.19.75.02 1.35.63 1.77.61.43 1.35.64 2.21.64.9-.03 1.78-.27 2.63-.73.85-.46 1.37-1.09 1.56-1.89.15-.74-.09-1.32-.72-1.74s-1.37-.62-2.23-.61c-.89.04-1.74.28-2.56.74zm33.3 9.56l-.07 1.46c-.01.24-.07.4-.18.48-.1.08-.27.12-.49.12h-6.34l-.47 3.9a.84.84 0 01-.12.42c-.07.09-.2.13-.41.13l-5.25.38c-.21 0-.34-.03-.41-.09-.07-.06-.09-.17-.08-.33l-.33-4.41h-6.45c-.31 0-.47-.13-.49-.4l-.14-1.64c-.01-.19.03-.34.14-.46s.28-.17.52-.17h20.09c.18 0 .3.04.38.12.09.09.11.25.1.49zm-2-12.62l-.2 2.22c-.01.22-.05.35-.11.39-.06.04-.2.06-.42.06l-10.4-.11.07 1.15 10.2-.13c.27-.01.44 0 .53.06.09.05.13.19.13.41L72.22 9c0 .16-.02.28-.07.35-.04.07-.1.12-.15.13-.06.01-.18.03-.35.04L61.6 9.7l.11 1.37 10.78-.49c.21-.01.34.01.41.08.07.07.11.21.12.43l.07 1.66c.01.22-.02.37-.1.43-.08.07-.23.11-.43.12l-15.99.98c-.55.03-.95-.04-1.22-.22s-.41-.54-.44-1.09l-.64-9.83c-.03-.5.08-.88.34-1.13.26-.25.62-.36 1.1-.33l16.26.82c.24.01.39.07.46.15.04.11.06.29.03.56zm23.73 12.4l-.07 1.46c-.01.24-.07.4-.18.48-.1.08-.27.12-.49.12h-6.32l-.49 4.12a.84.84 0 01-.12.42c-.07.09-.2.13-.41.13l-5.25.38c-.21 0-.34-.03-.41-.09-.07-.06-.09-.17-.08-.33l-.33-4.64h-6.45c-.31 0-.47-.13-.49-.4l-.13-1.64c-.01-.19.03-.34.14-.46s.29-.16.53-.16h20.09c.18 0 .3.04.38.12.07.09.1.25.08.49zM90.54 2.48l4.77.24c.35.01.57.09.65.22.08.13.07.38-.03.73l-2.33 8.98c-.09.31-.21.51-.35.61-.15.1-.36.16-.64.19l-14.3.44c-.44.01-.77-.06-.98-.22-.21-.16-.34-.47-.4-.91L75.34 2.39c-.04-.37 0-.62.12-.74.13-.13.37-.18.74-.17l5.92.35c.19.01.33.03.4.03.07.01.15.04.22.09.07.05.12.13.14.22.02.1.03.23.03.41l.15 2.59 6.34-.04.29-1.91c.06-.35.14-.58.23-.67.13-.07.32-.1.62-.07zm-7.1 8.49l5.1-.09.45-2.88-5.72.09.17 2.88z"/></svg>